<svg width="480" height="500" viewBox="0 0 480 500" fill="none" xmlns="http://www.w3.org/2000/svg">
<path d="M240 0C372.548 0 480 98.0621 480 219.027C480 253.8 471.12 286.679 455.318 315.881C441.812 346.99 417.424 382.521 384.894 415.771C333.255 468.552 275.994 500.365 239.339 499.997C202.683 500.365 145.423 468.551 93.7842 415.771C56.7634 377.931 30.2863 337.137 18.3945 303.268C6.54468 277.335 5.08904e-05 248.879 0 219.027C0 98.0621 107.452 3.68502e-06 240 0ZM203.748 238.094C176.986 190.716 129.652 167.438 98.0254 186.102C66.3985 204.765 62.4544 258.304 89.2158 305.682C115.978 353.06 163.311 376.338 194.938 357.674C226.566 339.01 230.51 285.472 203.748 238.094ZM377.417 186.102C345.79 167.438 298.456 190.716 271.694 238.094C244.933 285.472 248.877 339.01 280.504 357.674C312.131 376.338 359.465 353.06 386.227 305.682C412.988 258.303 409.044 204.765 377.417 186.102Z" fill="white"/>
</svg>
